<svg xmlns="http://www.w3.org/2000/svg" width="220" height="80" viewBox="0 0 220 80"><defs><style>.a{fill:gray;}.b{fill:#fff;}</style></defs><ellipse class="a" cx="40" cy="20" rx="30" ry="12.5"/><rect class="a" x="10" y="20" width="60" height="50"/><ellipse class="b" cx="40" cy="25" rx="21.25" ry="7"/><ellipse class="b" cx="40" cy="50" rx="21.25" ry="7"/><rect class="b" x="18.75" y="25" width="42.5" height="25"/><rect class="a" x="23.75" y="27.5" width="32.5" height="15"/><circle class="a" cx="30" cy="48.5" r="3"/><circle class="a" cx="50" cy="48.5" r="3"/><polygon class="b" points="29.392 63.5 23.392 63.5 30.608 51.5 36.608 51.5 29.392 63.5"/><polygon class="b" points="56.608 63.5 50.608 63.5 43.392 51.5 49.392 51.5 56.608 63.5"/><rect class="a" x="85" y="40" width="35" height="5"/><circle class="a" cx="85" cy="42.5" r="2.5"/><circle class="a" cx="120" cy="42.5" r="2.5"/><rect class="a" x="104.636" y="33.636" width="18" height="5" transform="translate(58.835 -69.769) rotate(45)"/><rect class="a" x="104.636" y="46.364" width="18" height="5" transform="translate(-1.269 94.665) rotate(-45)"/><circle class="a" cx="107.272" cy="55.228" r="2.5"/><circle class="a" cx="107.272" cy="29.772" r="2.5"/><rect class="a" x="135.5" y="16" width="4" height="54"/><rect class="a" x="135.5" y="66" width="75" height="4"/><rect class="a" x="139" y="51.5" width="14" height="2"/><rect class="a" x="165" y="51.5" width="16" height="2"/><rect class="a" x="193" y="51.5" width="14" height="2"/><rect class="a" x="151" y="34" width="16" height="2"/><rect class="a" x="151" y="34" width="2" height="19.5"/><rect class="a" x="165" y="34" width="2" height="19.5"/><rect class="a" x="179" y="34" width="2" height="19.5"/><rect class="a" x="179" y="34" width="16" height="2"/><rect class="a" x="193" y="34" width="2" height="19.5"/></svg>